<?xml version="1.0" standalone="no"?><svg xmlns="http://www.w3.org/2000/svg" viewBox="0 0 1440 320">
  <path fill="#273036" fill-opacity="1" d="M0,256L17.1,256C34.3,256,69,256,103,234.7C137.1,213,171,171,206,165.3C240,160,274,192,309,192C342.9,192,377,160,411,160C445.7,160,480,192,514,192C548.6,192,583,160,617,165.3C651.4,171,686,213,720,245.3C754.3,277,789,299,823,293.3C857.1,288,891,256,926,250.7C960,245,994,267,1029,272C1062.9,277,1097,267,1131,256C1165.7,245,1200,235,1234,240C1268.6,245,1303,267,1337,282.7C1371.4,299,1406,309,1423,314.7L1440,320L1440,320L1422.9,320C1405.7,320,1371,320,1337,320C1302.9,320,1269,320,1234,320C1200,320,1166,320,1131,320C1097.1,320,1063,320,1029,320C994.3,320,960,320,926,320C891.4,320,857,320,823,320C788.6,320,754,320,720,320C685.7,320,651,320,617,320C582.9,320,549,320,514,320C480,320,446,320,411,320C377.1,320,343,320,309,320C274.3,320,240,320,206,320C171.4,320,137,320,103,320C68.6,320,34,320,17,320L0,320Z"></path>
</svg>