<?xml version="1.0" standalone="no"?><svg xmlns="http://www.w3.org/2000/svg" viewBox="0 0 1440 320">
  <path fill="#154360" fill-opacity="1" d="M0,256L13.3,224C26.7,192,53,128,80,138.7C106.7,149,133,235,160,234.7C186.7,235,213,149,240,117.3C266.7,85,293,107,320,122.7C346.7,139,373,149,400,165.3C426.7,181,453,203,480,218.7C506.7,235,533,245,560,256C586.7,267,613,277,640,250.7C666.7,224,693,160,720,112C746.7,64,773,32,800,37.3C826.7,43,853,85,880,90.7C906.7,96,933,64,960,80C986.7,96,1013,160,1040,197.3C1066.7,235,1093,245,1120,234.7C1146.7,224,1173,192,1200,192C1226.7,192,1253,224,1280,197.3C1306.7,171,1333,85,1360,48C1386.7,11,1413,21,1427,26.7L1440,32L1440,320L1426.7,320C1413.3,320,1387,320,1360,320C1333.3,320,1307,320,1280,320C1253.3,320,1227,320,1200,320C1173.3,320,1147,320,1120,320C1093.3,320,1067,320,1040,320C1013.3,320,987,320,960,320C933.3,320,907,320,880,320C853.3,320,827,320,800,320C773.3,320,747,320,720,320C693.3,320,667,320,640,320C613.3,320,587,320,560,320C533.3,320,507,320,480,320C453.3,320,427,320,400,320C373.3,320,347,320,320,320C293.3,320,267,320,240,320C213.3,320,187,320,160,320C133.3,320,107,320,80,320C53.3,320,27,320,13,320L0,320Z"></path>
</svg>